# xmcd
#
# Track frame offsets:
#	150
#	3741
#	20622
#	35779
#	51440
#	68421
#	77760
#	98944
#	102137
#	114258
#	132343
#	143495
#	158069
#	168706
#	182292
#	186730
#	198507
#	217166
#	235114
#	259609
#	280654
#	297402
#	318315
#
# Disc length: 4685 seconds
#
# Revision: 0
# Processed by: cddbd v1.5.2PL0 Copyright (c) Steve Scherf et al.
# Submitted via: dBpowerAMP V4.0
#
DISCID=4f124b17
DTITLE=Obituary - Frozen Alive
DYEAR=2006
DGENRE=Death Metal
TTITLE0=Rain
TTITLE1=Redneck Stomp
TTITLE2=On The Floor
TTITLE3=Insane
TTITLE4=Chopped In Half
TTITLE5=Turned Inside Out
TTITLE6=Dying
TTITLE7=Intro
TTITLE8=Internal bleeding
TTITLE9=Back To One
TTITLE10=Find The Arise
TTITLE11=Back Inside
TTITLE12=Threatening Skies
TTITLE13=By The Light
TTITLE14=Intro
TTITLE15=Kill For Me
TTITLE16=Solid State
TTITLE17=Stand Alone
TTITLE18=Back From The Dead
TTITLE19=lockjaw
TTITLE20=Slow Death
TTITLE21='Til Death
TTITLE22=Slowly We Rot
EXTD=
EXTT0=
EXTT1=
EXTT2=
EXTT3=
EXTT4=
EXTT5=
EXTT6=
EXTT7=
EXTT8=
EXTT9=
EXTT10=
EXTT11=
EXTT12=
EXTT13=
EXTT14=
EXTT15=
EXTT16=
EXTT17=
EXTT18=
EXTT19=
EXTT20=
EXTT21=
EXTT22=
PLAYORDER=
